ffmpeg started on 2016-12-05 at 11:37:45
Report written to "Output/x264/results/ffmpeg/sintelfaster1500k.log"
Command line:
Tools/ffmpeg/ffmpeg -benchmark -y -i Input/y4m/sintel.y4m -c:v libx264 -preset faster -b:v 1500k -an Output/x264/encoded/sintelfaster1500k.mkv
ffmpeg version N-82227-gdb23fde Copyright (c) 2000-2016 the FFmpeg developers
  built with gcc 5.4.0 (Ubuntu 5.4.0-6ubuntu1~16.04.2) 20160609
  configuration: --prefix=/home/jaroslav/ffmpeg_build --pkg-config-flags=--static --extra-cflags=-I/home/jaroslav/ffmpeg_build/include --extra-ldflags=-L/home/jaroslav/ffmpeg_build/lib --bindir=/home/jaroslav/bin --enable-gpl --enable-libass --enable-libfdk-aac --enable-libfreetype --enable-libmp3lame --enable-libopus --enable-libtheora --enable-libvorbis --enable-libvpx --enable-libx264 --enable-libx265 --enable-nvenc --enable-libmfx --enable-libxvid --enable-libgsm --enable-libopencore-amrnb --enable-version3 --enable-nonfree
  libavutil      55. 35.100 / 55. 35.100
  libavcodec     57. 66.101 / 57. 66.101
  libavformat    57. 57.100 / 57. 57.100
  libavdevice    57.  2.100 / 57.  2.100
  libavfilter     6. 66.100 /  6. 66.100
  libswscale      4.  3.100 /  4.  3.100
  libswresample   2.  4.100 /  2.  4.100
  libpostproc    54.  2.100 / 54.  2.100
Input #0, yuv4mpegpipe, from 'Input/y4m/sintel.y4m':
  Duration: 00:00:20.83, start: 0.000000, bitrate: 2057307 kb/s
    Stream #0:0: Video: rawvideo (I420 / 0x30323449), yuv420p(progressive), 4096x1744, SAR 1:1 DAR 256:109, 24 fps, 24 tbr, 24 tbn, 24 tbc
[libx264 @ 0x42461c0] using SAR=1/1
[libx264 @ 0x42461c0] using cpu capabilities: MMX2 SSE2Fast SSSE3 SSE4.2 AVX FMA3 AVX2 LZCNT BMI2
[libx264 @ 0x42461c0] profile High, level 5.1
[libx264 @ 0x42461c0] 264 - core 148 - H.264/MPEG-4 AVC codec - Copyleft 2003-2016 - http://www.videolan.org/x264.html - options: cabac=1 ref=2 deblock=1:0:0 analyse=0x3:0x113 me=hex subme=4 psy=1 psy_rd=1.00:0.00 mixed_ref=0 me_range=16 chroma_me=1 trellis=1 8x8dct=1 cqm=0 deadzone=21,11 fast_pskip=1 chroma_qp_offset=0 threads=6 lookahead_threads=1 sliced_threads=0 nr=0 decimate=1 interlaced=0 bluray_compat=0 constrained_intra=0 bframes=3 b_pyramid=2 b_adapt=1 b_bias=0 direct=1 weightb=1 open_gop=0 weightp=1 keyint=250 keyint_min=24 scenecut=40 intra_refresh=0 rc_lookahead=20 rc=abr mbtree=1 bitrate=1500 ratetol=1.0 qcomp=0.60 qpmin=0 qpmax=69 qpstep=4 ip_ratio=1.40 aq=1:1.00
Output #0, matroska, to 'Output/x264/encoded/sintelfaster1500k.mkv':
  Metadata:
    encoder         : Lavf57.57.100
    Stream #0:0: Video: h264 (libx264) (H264 / 0x34363248), yuv420p, 4096x1744 [SAR 1:1 DAR 256:109], q=-1--1, 1500 kb/s, 24 fps, 1k tbn, 24 tbc
    Metadata:
      encoder         : Lavc57.66.101 libx264
    Side data:
      cpb: bitrate max/min/avg: 0/0/1500000 buffer size: 0 vbv_delay: -1
Stream mapping:
  Stream #0:0 -> #0:0 (rawvideo (native) -> h264 (libx264))
Press [q] to stop, [?] for help
frame=   10 fps=0.0 q=0.0 size=       0kB time=00:00:00.00 bitrate=N/A speed=   0x    frame=   19 fps= 18 q=0.0 size=       0kB time=00:00:00.00 bitrate=N/A speed=   0x    frame=   27 fps= 11 q=0.0 size=       0kB time=00:00:00.00 bitrate=N/A speed=   0x    frame=   32 fps= 10 q=41.0 size=       1kB time=-00:00:00.04 bitrate=N/A speed=N/A    frame=   38 fps= 10 q=58.0 size=       1kB time=00:00:00.20 bitrate=  28.1kbits/s speed=0.0554x    frame=   47 fps= 11 q=61.0 size=       1kB time=00:00:00.58 bitrate=  10.0kbits/s speed=0.135x    frame=   55 fps=7.2 q=64.0 size=       1kB time=00:00:00.91 bitrate=   6.4kbits/s speed=0.12x    frame=   56 fps=5.3 q=64.0 size=       1kB time=00:00:00.95 bitrate=   6.1kbits/s speed=0.091x    frame=   66 fps=6.0 q=64.0 size=       1kB time=00:00:01.37 bitrate=   4.3kbits/s speed=0.124x    frame=   74 fps=6.4 q=64.0 size=       1kB time=00:00:01.70 bitrate=   3.4kbits/s speed=0.147x    frame=   82 fps=6.7 q=64.0 size=       1kB time=00:00:02.04 bitrate=   2.9kbits/s speed=0.168x    frame=   90 fps=7.1 q=64.0 size=       1kB time=00:00:02.37 bitrate=   2.5kbits/s speed=0.187x    frame=   98 fps=7.4 q=65.0 size=       1kB time=00:00:02.70 bitrate=   2.2kbits/s speed=0.204x    frame=  105 fps=7.6 q=65.0 size=       1kB time=00:00:03.00 bitrate=   2.0kbits/s speed=0.217x    frame=  112 fps=7.8 q=65.0 size=       1kB time=00:00:03.29 bitrate=   1.8kbits/s speed=0.23x    frame=  119 fps=8.0 q=65.0 size=       1kB time=00:00:03.58 bitrate=   1.6kbits/s speed=0.241x    frame=  126 fps=8.2 q=65.0 size=       1kB time=00:00:03.87 bitrate=   1.5kbits/s speed=0.252x    frame=  135 fps=8.4 q=65.0 size=     998kB time=00:00:04.25 bitrate=1923.1kbits/s speed=0.266x    frame=  142 fps=8.6 q=65.0 size=     998kB time=00:00:04.54 bitrate=1799.5kbits/s speed=0.275x    frame=  151 fps=8.8 q=65.0 size=     998kB time=00:00:04.91 bitrate=1662.3kbits/s speed=0.288x    frame=  159 fps=9.0 q=65.0 size=     998kB time=00:00:05.25 bitrate=1556.9kbits/s speed=0.298x    frame=  167 fps=9.2 q=65.0 size=     998kB time=00:00:05.58 bitrate=1464.1kbits/s speed=0.307x    frame=  175 fps=9.3 q=66.0 size=     998kB time=00:00:05.91 bitrate=1381.4kbits/s speed=0.316x    frame=  181 fps=9.4 q=66.0 size=     998kB time=00:00:06.16 bitrate=1325.4kbits/s speed=0.321x    frame=  191 fps=9.6 q=65.0 size=    1442kB time=00:00:06.58 bitrate=1793.9kbits/s speed=0.333x    frame=  199 fps=9.8 q=65.0 size=    1442kB time=00:00:06.91 bitrate=1707.3kbits/s speed=0.341x    frame=  206 fps=9.9 q=65.0 size=    1442kB time=00:00:07.20 bitrate=1638.4kbits/s speed=0.347x    frame=  211 fps=9.9 q=65.0 size=    1442kB time=00:00:07.41 bitrate=1592.2kbits/s speed=0.348x    frame=  220 fps= 10 q=65.0 size=    1606kB time=00:00:07.79 bitrate=1688.3kbits/s speed=0.356x    frame=  227 fps= 10 q=65.0 size=    1606kB time=00:00:08.08 bitrate=1627.6kbits/s speed=0.36x    frame=  236 fps= 10 q=65.0 size=    1606kB time=00:00:08.45 bitrate=1555.4kbits/s speed=0.368x    frame=  246 fps= 10 q=64.0 size=    1606kB time=00:00:08.87 bitrate=1482.3kbits/s speed=0.376x    frame=  254 fps= 11 q=64.0 size=    1606kB time=00:00:09.20 bitrate=1428.7kbits/s speed=0.381x    frame=  263 fps= 11 q=64.0 size=    1606kB time=00:00:09.58 bitrate=1372.8kbits/s speed=0.388x    frame=  271 fps= 11 q=64.0 size=    1606kB time=00:00:09.91 bitrate=1326.6kbits/s speed=0.392x    frame=  280 fps= 11 q=64.0 size=    1606kB time=00:00:10.29 bitrate=1278.3kbits/s speed=0.398x    frame=  288 fps= 11 q=63.0 size=    1606kB time=00:00:10.62 bitrate=1238.2kbits/s speed=0.396x    frame=  301 fps= 11 q=63.0 size=    2052kB time=00:00:11.16 bitrate=1504.9kbits/s speed=0.408x    frame=  312 fps= 11 q=62.0 size=    2052kB time=00:00:11.62 bitrate=1445.7kbits/s speed=0.417x    frame=  321 fps= 11 q=62.0 size=    2052kB time=00:00:12.00 bitrate=1400.5kbits/s speed=0.421x    frame=  333 fps= 11 q=62.0 size=    2052kB time=00:00:12.50 bitrate=1344.5kbits/s speed=0.43x    frame=  345 fps= 12 q=61.0 size=    2052kB time=00:00:13.00 bitrate=1292.8kbits/s speed=0.438x    frame=  357 fps= 12 q=60.0 size=    2052kB time=00:00:13.50 bitrate=1244.9kbits/s speed=0.447x    frame=  369 fps= 12 q=60.0 size=    2052kB time=00:00:14.00 bitrate=1200.4kbits/s speed=0.454x    frame=  375 fps= 12 q=59.0 size=    2052kB time=00:00:14.25 bitrate=1179.4kbits/s speed=0.454x    frame=  385 fps= 12 q=59.0 size=    2052kB time=00:00:14.66 bitrate=1145.8kbits/s speed=0.46x    frame=  395 fps= 12 q=58.0 size=    2340kB time=00:00:15.08 bitrate=1270.6kbits/s speed=0.465x    frame=  403 fps= 12 q=58.0 size=    2340kB time=00:00:15.41 bitrate=1243.1kbits/s speed=0.468x    frame=  409 fps= 12 q=58.0 size=    2340kB time=00:00:15.66 bitrate=1223.3kbits/s speed=0.468x    frame=  420 fps= 12 q=57.0 size=    2340kB time=00:00:16.12 bitrate=1188.5kbits/s speed=0.474x    frame=  430 fps= 12 q=57.0 size=    2340kB time=00:00:16.54 bitrate=1158.6kbits/s speed=0.477x    frame=  440 fps= 12 q=57.0 size=    2340kB time=00:00:16.95 bitrate=1130.1kbits/s speed=0.481x    frame=  452 fps= 13 q=57.0 size=    2644kB time=00:00:17.45 bitrate=1240.5kbits/s speed=0.487x    frame=  461 fps= 13 q=57.0 size=    2644kB time=00:00:17.83 bitrate=1214.5kbits/s speed=0.49x    frame=  471 fps= 13 q=57.0 size=    2644kB time=00:00:18.25 bitrate=1186.7kbits/s speed=0.494x    frame=  479 fps= 13 q=56.0 size=    2644kB time=00:00:18.58 bitrate=1165.5kbits/s speed=0.496x    frame=  489 fps= 13 q=56.0 size=    2644kB time=00:00:19.00 bitrate=1139.9kbits/s speed=0.499x    frame=  500 fps= 13 q=56.0 size=    2644kB time=00:00:19.45 bitrate=1113.0kbits/s speed=0.503x    frame=  500 fps= 13 q=-1.0 Lsize=    3055kB time=00:00:20.70 bitrate=1208.5kbits/s speed=0.526x    
video:3051kB audio:0kB subtitle:0kB other streams:0kB global headers:0kB muxing overhead: 0.145211%
bench: utime=85.640s
bench: maxrss=1114924kB
[libx264 @ 0x42461c0] frame I:8     Avg QP:48.10  size: 16226
[libx264 @ 0x42461c0] frame P:269   Avg QP:50.77  size:  7537
[libx264 @ 0x42461c0] frame B:223   Avg QP:50.48  size:  4331
[libx264 @ 0x42461c0] consecutive B-frames: 37.0%  8.4%  6.6% 48.0%
[libx264 @ 0x42461c0] mb I  I16..4: 76.1% 23.9%  0.0%
[libx264 @ 0x42461c0] mb P  I16..4: 14.1%  5.6%  0.0%  P16..4:  7.3%  0.8%  0.1%  0.0%  0.0%    skip:72.1%
[libx264 @ 0x42461c0] mb B  I16..4:  1.3%  0.9%  0.0%  B16..8:  7.8%  0.1%  0.0%  direct: 1.3%  skip:88.7%  L0:48.8% L1:50.5% BI: 0.7%
[libx264 @ 0x42461c0] final ratefactor: 54.38
[libx264 @ 0x42461c0] 8x8 transform intra:28.8% inter:96.9%
[libx264 @ 0x42461c0] coded y,uvDC,uvAC intra: 3.0% 9.1% 0.0% inter: 0.2% 0.7% 0.0%
[libx264 @ 0x42461c0] i16 v,h,dc,p: 76% 18%  5%  1%
[libx264 @ 0x42461c0] i8 v,h,dc,ddl,ddr,vr,hd,vl,hu:  5% 12% 77%  1%  1%  1%  1%  1%  1%
[libx264 @ 0x42461c0] i4 v,h,dc,ddl,ddr,vr,hd,vl,hu: 34% 25% 15%  7%  2%  5%  4%  4%  6%
[libx264 @ 0x42461c0] i8c dc,h,v,p: 99%  0%  0%  0%
[libx264 @ 0x42461c0] Weighted P-Frames: Y:0.7% UV:0.0%
[libx264 @ 0x42461c0] ref P L0: 51.0% 49.0%
[libx264 @ 0x42461c0] ref B L0: 74.2% 25.8%
[libx264 @ 0x42461c0] ref B L1: 92.3%  7.7%
[libx264 @ 0x42461c0] kb/s:1199.25
